{
    "asset" : {
        "generator" : "Khronos glTF Blender I/O v1.8.19",
        "version" : "2.0"
    },
    "scene" : 0,
    "scenes" : [
        {
            "name" : "Scene",
            "nodes" : [
                4
            ]
        }
    ],
    "nodes" : [
        {
            "mesh" : 0,
            "name" : "NbtyEgyptOKHairM_1_NbtyEgyptOKHairM_1_HairB_0"
        },
        {
            "children" : [
                0
            ],
            "name" : "NbtyEgyptOKHairM_1",
            "translation" : [
                0.05544034019112587,
                187.26425170898438,
                -3.203728675842285
            ]
        },
        {
            "children" : [
                1
            ],
            "name" : "RootNode"
        },
        {
            "children" : [
                2
            ],
            "name" : "041e28b4d86641889fae399b3502e40b.fbx",
            "rotation" : [
                0.7071068286895752,
                0,
                0,
                0.7071068286895752
            ]
        },
        {
            "children" : [
                3
            ],
            "name" : "Sketchfab_model",
            "rotation" : [
                -0.7071068286895752,
                0,
                0,
                0.7071068286895752
            ],
            "scale" : [
                0.008281244896352291,
                0.008281244896352291,
                0.008281244896352291
            ]
        }
    ],
    "materials" : [
        {
            "doubleSided" : true,
            "name" : "NbtyEgyptOKHairM_1_HairB",
            "pbrMetallicRoughness" : {}
        }
    ],
    "meshes" : [
        {
            "name" : "NbtyEgyptOKHairM_1_NbtyEgyptOKHairM_1_HairB_0",
            "primitives" : [
                {
                    "attributes" : {
                        "POSITION" : 0,
                        "NORMAL" : 1,
                        "TEXCOORD_0" : 2,
                        "TEXCOORD_1" : 3,
                        "TEXCOORD_2" : 4
                    },
                    "indices" : 5,
                    "material" : 0
                }
            ]
        }
    ],
    "accessors" : [
        {
            "bufferView" : 0,
            "componentType" : 5126,
            "count" : 2527,
            "max" : [
                9.483661651611328,
                13.240615844726562,
                11.738354682922363
            ],
            "min" : [
                -9.483659744262695,
                -13.240615844726562,
                -11.738354682922363
            ],
            "type" : "VEC3"
        },
        {
            "bufferView" : 1,
            "componentType" : 5126,
            "count" : 2527,
            "type" : "VEC3"
        },
        {
            "bufferView" : 2,
            "componentType" : 5126,
            "count" : 2527,
            "type" : "VEC2"
        },
        {
            "bufferView" : 3,
            "componentType" : 5126,
            "count" : 2527,
            "type" : "VEC2"
        },
        {
            "bufferView" : 4,
            "componentType" : 5126,
            "count" : 2527,
            "type" : "VEC2"
        },
        {
            "bufferView" : 5,
            "componentType" : 5123,
            "count" : 14844,
            "type" : "SCALAR"
        }
    ],
    "bufferViews" : [
        {
            "buffer" : 0,
            "byteLength" : 30324,
            "byteOffset" : 0
        },
        {
            "buffer" : 0,
            "byteLength" : 30324,
            "byteOffset" : 30324
        },
        {
            "buffer" : 0,
            "byteLength" : 20216,
            "byteOffset" : 60648
        },
        {
            "buffer" : 0,
            "byteLength" : 20216,
            "byteOffset" : 80864
        },
        {
            "buffer" : 0,
            "byteLength" : 20216,
            "byteOffset" : 101080
        },
        {
            "buffer" : 0,
            "byteLength" : 29688,
            "byteOffset" : 121296
        }
    ],
    "buffers" : [
        {
            "byteLength" : 150984,
            "uri" : "data:application/octet-stream;base64,"
        }
    ]
}
