{
    "asset" : {
        "generator" : "Khronos glTF Blender I/O v1.8.19",
        "version" : "2.0"
    },
    "scene" : 0,
    "scenes" : [
        {
            "name" : "Scene",
            "nodes" : [
                7
            ]
        }
    ],
    "nodes" : [
        {
            "mesh" : 0,
            "name" : "Object_2"
        },
        {
            "mesh" : 1,
            "name" : "Object_3"
        },
        {
            "mesh" : 2,
            "name" : "Object_4"
        },
        {
            "mesh" : 3,
            "name" : "Object_5"
        },
        {
            "mesh" : 4,
            "name" : "Object_6"
        },
        {
            "mesh" : 5,
            "name" : "Object_7"
        },
        {
            "children" : [
                0,
                1,
                2,
                3,
                4,
                5
            ],
            "name" : "propeller cap.obj.cleaner.materialmerger.gles"
        },
        {
            "children" : [
                6
            ],
            "name" : "Sketchfab_model",
            "rotation" : [
                -0.7071068286895752,
                0,
                0,
                0.7071068286895752
            ]
        }
    ],
    "materials" : [
        {
            "doubleSided" : true,
            "name" : "blue",
            "pbrMetallicRoughness" : {}
        },
        {
            "doubleSided" : true,
            "name" : "material",
            "pbrMetallicRoughness" : {}
        },
        {
            "doubleSided" : true,
            "name" : "green",
            "pbrMetallicRoughness" : {}
        },
        {
            "doubleSided" : true,
            "name" : "propeller",
            "pbrMetallicRoughness" : {}
        },
        {
            "doubleSided" : true,
            "name" : "yellow",
            "pbrMetallicRoughness" : {}
        },
        {
            "doubleSided" : true,
            "name" : "black",
            "pbrMetallicRoughness" : {}
        }
    ],
    "meshes" : [
        {
            "name" : "Object_0",
            "primitives" : [
                {
                    "attributes" : {
                        "POSITION" : 0,
                        "NORMAL" : 1,
                        "TEXCOORD_0" : 2
                    },
                    "indices" : 3,
                    "material" : 0
                }
            ]
        },
        {
            "name" : "Object_1",
            "primitives" : [
                {
                    "attributes" : {
                        "POSITION" : 4,
                        "NORMAL" : 5,
                        "TEXCOORD_0" : 6
                    },
                    "indices" : 7,
                    "material" : 1
                }
            ]
        },
        {
            "name" : "Object_2",
            "primitives" : [
                {
                    "attributes" : {
                        "POSITION" : 8,
                        "NORMAL" : 9,
                        "TEXCOORD_0" : 10
                    },
                    "indices" : 11,
                    "material" : 2
                }
            ]
        },
        {
            "name" : "Object_3",
            "primitives" : [
                {
                    "attributes" : {
                        "POSITION" : 12,
                        "NORMAL" : 13,
                        "TEXCOORD_0" : 14
                    },
                    "indices" : 15,
                    "material" : 3
                }
            ]
        },
        {
            "name" : "Object_4",
            "primitives" : [
                {
                    "attributes" : {
                        "POSITION" : 16,
                        "NORMAL" : 17,
                        "TEXCOORD_0" : 18
                    },
                    "indices" : 19,
                    "material" : 4
                }
            ]
        },
        {
            "name" : "Object_5",
            "primitives" : [
                {
                    "attributes" : {
                        "POSITION" : 20,
                        "NORMAL" : 21,
                        "TEXCOORD_0" : 22
                    },
                    "indices" : 23,
                    "material" : 5
                }
            ]
        }
    ],
    "accessors" : [
        {
            "bufferView" : 0,
            "componentType" : 5126,
            "count" : 247,
            "max" : [
                0.004770999774336815,
                0.004770999774336815,
                0.11479300260543823
            ],
            "min" : [
                -0.004770999774336815,
                -0.004770999774336815,
                0.08143600076436996
            ],
            "type" : "VEC3"
        },
        {
            "bufferView" : 1,
            "componentType" : 5126,
            "count" : 247,
            "type" : "VEC3"
        },
        {
            "bufferView" : 2,
            "componentType" : 5126,
            "count" : 247,
            "type" : "VEC2"
        },
        {
            "bufferView" : 3,
            "componentType" : 5123,
            "count" : 1200,
            "type" : "SCALAR"
        },
        {
            "bufferView" : 4,
            "componentType" : 5126,
            "count" : 904,
            "max" : [
                0.09014099836349487,
                0.08033700287342072,
                0.08099699765443802
            ],
            "min" : [
                -0.09036300331354141,
                -0.08033700287342072,
                -0.016496999189257622
            ],
            "type" : "VEC3"
        },
        {
            "bufferView" : 5,
            "componentType" : 5126,
            "count" : 904,
            "type" : "VEC3"
        },
        {
            "bufferView" : 6,
            "componentType" : 5126,
            "count" : 904,
            "type" : "VEC2"
        },
        {
            "bufferView" : 7,
            "componentType" : 5123,
            "count" : 4548,
            "type" : "SCALAR"
        },
        {
            "bufferView" : 8,
            "componentType" : 5126,
            "count" : 231,
            "max" : [
                0.15112799406051636,
                0.078186996281147,
                -0.006258000154048204
            ],
            "min" : [
                0.027984999120235443,
                -0.078186996281147,
                -0.037335000932216644
            ],
            "type" : "VEC3"
        },
        {
            "bufferView" : 9,
            "componentType" : 5126,
            "count" : 231,
            "type" : "VEC3"
        },
        {
            "bufferView" : 10,
            "componentType" : 5126,
            "count" : 231,
            "type" : "VEC2"
        },
        {
            "bufferView" : 11,
            "componentType" : 5123,
            "count" : 1116,
            "type" : "SCALAR"
        },
        {
            "bufferView" : 12,
            "componentType" : 5126,
            "count" : 843,
            "max" : [
                0.009430999867618084,
                0.04594700038433075,
                0.10391700267791748
            ],
            "min" : [
                -0.009430999867618084,
                -0.04594700038433075,
                0.0973690003156662
            ],
            "type" : "VEC3"
        },
        {
            "bufferView" : 13,
            "componentType" : 5126,
            "count" : 843,
            "type" : "VEC3"
        },
        {
            "bufferView" : 14,
            "componentType" : 5126,
            "count" : 843,
            "type" : "VEC2"
        },
        {
            "bufferView" : 15,
            "componentType" : 5123,
            "count" : 3840,
            "type" : "SCALAR"
        },
        {
            "bufferView" : 16,
            "componentType" : 5126,
            "count" : 250,
            "max" : [
                0.004013000056147575,
                0.004013000056147575,
                0.10844899713993073
            ],
            "min" : [
                -0.004013000056147575,
                -0.004013000056147575,
                0.09116099774837494
            ],
            "type" : "VEC3"
        },
        {
            "bufferView" : 17,
            "componentType" : 5126,
            "count" : 250,
            "type" : "VEC3"
        },
        {
            "bufferView" : 18,
            "componentType" : 5126,
            "count" : 250,
            "type" : "VEC2"
        },
        {
            "bufferView" : 19,
            "componentType" : 5123,
            "count" : 1152,
            "type" : "SCALAR"
        },
        {
            "bufferView" : 20,
            "componentType" : 5126,
            "count" : 860,
            "max" : [
                0.08848100155591965,
                0.0786999985575676,
                0.1090489998459816
            ],
            "min" : [
                -0.0887259989976883,
                -0.0786999985575676,
                -0.016496999189257622
            ],
            "type" : "VEC3"
        },
        {
            "bufferView" : 21,
            "componentType" : 5126,
            "count" : 860,
            "type" : "VEC3"
        },
        {
            "bufferView" : 22,
            "componentType" : 5126,
            "count" : 860,
            "type" : "VEC2"
        },
        {
            "bufferView" : 23,
            "componentType" : 5123,
            "count" : 4104,
            "type" : "SCALAR"
        }
    ],
    "bufferViews" : [
        {
            "buffer" : 0,
            "byteLength" : 2964,
            "byteOffset" : 0
        },
        {
            "buffer" : 0,
            "byteLength" : 2964,
            "byteOffset" : 2964
        },
        {
            "buffer" : 0,
            "byteLength" : 1976,
            "byteOffset" : 5928
        },
        {
            "buffer" : 0,
            "byteLength" : 2400,
            "byteOffset" : 7904
        },
        {
            "buffer" : 0,
            "byteLength" : 10848,
            "byteOffset" : 10304
        },
        {
            "buffer" : 0,
            "byteLength" : 10848,
            "byteOffset" : 21152
        },
        {
            "buffer" : 0,
            "byteLength" : 7232,
            "byteOffset" : 32000
        },
        {
            "buffer" : 0,
            "byteLength" : 9096,
            "byteOffset" : 39232
        },
        {
            "buffer" : 0,
            "byteLength" : 2772,
            "byteOffset" : 48328
        },
        {
            "buffer" : 0,
            "byteLength" : 2772,
            "byteOffset" : 51100
        },
        {
            "buffer" : 0,
            "byteLength" : 1848,
            "byteOffset" : 53872
        },
        {
            "buffer" : 0,
            "byteLength" : 2232,
            "byteOffset" : 55720
        },
        {
            "buffer" : 0,
            "byteLength" : 10116,
            "byteOffset" : 57952
        },
        {
            "buffer" : 0,
            "byteLength" : 10116,
            "byteOffset" : 68068
        },
        {
            "buffer" : 0,
            "byteLength" : 6744,
            "byteOffset" : 78184
        },
        {
            "buffer" : 0,
            "byteLength" : 7680,
            "byteOffset" : 84928
        },
        {
            "buffer" : 0,
            "byteLength" : 3000,
            "byteOffset" : 92608
        },
        {
            "buffer" : 0,
            "byteLength" : 3000,
            "byteOffset" : 95608
        },
        {
            "buffer" : 0,
            "byteLength" : 2000,
            "byteOffset" : 98608
        },
        {
            "buffer" : 0,
            "byteLength" : 2304,
            "byteOffset" : 100608
        },
        {
            "buffer" : 0,
            "byteLength" : 10320,
            "byteOffset" : 102912
        },
        {
            "buffer" : 0,
            "byteLength" : 10320,
            "byteOffset" : 113232
        },
        {
            "buffer" : 0,
            "byteLength" : 6880,
            "byteOffset" : 123552
        },
        {
            "buffer" : 0,
            "byteLength" : 8208,
            "byteOffset" : 130432
        }
    ],
    "buffers" : [
        {
            "byteLength" : 138640,
            "uri" : "data:application/octet-stream;base64,"
        }
    ]
}
