{
    "asset" : {
        "generator" : "Khronos glTF Blender I/O v1.8.19",
        "version" : "2.0"
    },
    "scene" : 0,
    "scenes" : [
        {
            "name" : "Scene",
            "nodes" : [
                0,
                1,
                2,
                3,
                4
            ]
        }
    ],
    "nodes" : [
        {
            "mesh" : 0,
            "name" : "Cube",
            "scale" : [
                0.8879057168960571,
                0.05502928048372269,
                0.9160876274108887
            ]
        },
        {
            "mesh" : 1,
            "name" : "Cube.001",
            "scale" : [
                -0.1659768670797348,
                -0.9315912127494812,
                -0.1659768670797348
            ],
            "translation" : [
                -0.7204851508140564,
                0.9556269645690918,
                0.7438219785690308
            ]
        },
        {
            "mesh" : 2,
            "name" : "Cube.002",
            "scale" : [
                -0.1659768670797348,
                -0.9315912127494812,
                -0.1659768670797348
            ],
            "translation" : [
                0.7201246619224548,
                0.9556269645690918,
                0.7438219785690308
            ]
        },
        {
            "mesh" : 3,
            "name" : "Cube.003",
            "scale" : [
                -0.1659768670797348,
                -0.9315912127494812,
                -0.1659768670797348
            ],
            "translation" : [
                -0.7204851508140564,
                0.9556269645690918,
                -0.7454890012741089
            ]
        },
        {
            "mesh" : 4,
            "name" : "Cube.004",
            "scale" : [
                -0.1659768670797348,
                -0.9315912127494812,
                -0.1659768670797348
            ],
            "translation" : [
                0.7202880382537842,
                0.9556269645690918,
                -0.7497295141220093
            ]
        }
    ],
    "materials" : [
        {
            "doubleSided" : true,
            "name" : "Material.004",
            "pbrMetallicRoughness" : {
                "baseColorTexture" : {
                    "index" : 0
                },
                "metallicFactor" : 0,
                "roughnessFactor" : 0.5
            }
        }
    ],
    "meshes" : [
        {
            "name" : "Cube.004",
            "primitives" : [
                {
                    "attributes" : {
                        "POSITION" : 0,
                        "NORMAL" : 1,
                        "TEXCOORD_0" : 2
                    },
                    "indices" : 3,
                    "material" : 0
                }
            ]
        },
        {
            "name" : "Cube.005",
            "primitives" : [
                {
                    "attributes" : {
                        "POSITION" : 4,
                        "NORMAL" : 5,
                        "TEXCOORD_0" : 6
                    },
                    "indices" : 7
                }
            ]
        },
        {
            "name" : "Cube.006",
            "primitives" : [
                {
                    "attributes" : {
                        "POSITION" : 8,
                        "NORMAL" : 9,
                        "TEXCOORD_0" : 10
                    },
                    "indices" : 7
                }
            ]
        },
        {
            "name" : "Cube.007",
            "primitives" : [
                {
                    "attributes" : {
                        "POSITION" : 11,
                        "NORMAL" : 12,
                        "TEXCOORD_0" : 13
                    },
                    "indices" : 7
                }
            ]
        },
        {
            "name" : "Cube.008",
            "primitives" : [
                {
                    "attributes" : {
                        "POSITION" : 14,
                        "NORMAL" : 15,
                        "TEXCOORD_0" : 16
                    },
                    "indices" : 7
                }
            ]
        }
    ],
    "textures" : [
        {
            "sampler" : 0,
            "source" : 0
        }
    ],
    "images" : [
        {
            "bufferView" : 4,
            "mimeType" : "image/png",
            "name" : "chair"
        }
    ],
    "accessors" : [
        {
            "bufferView" : 0,
            "componentType" : 5126,
            "count" : 46,
            "max" : [
                1,
                83.58750915527344,
                1.0000001192092896
            ],
            "min" : [
                -1,
                34.03559494018555,
                -1.0000001192092896
            ],
            "type" : "VEC3"
        },
        {
            "bufferView" : 1,
            "componentType" : 5126,
            "count" : 46,
            "type" : "VEC3"
        },
        {
            "bufferView" : 2,
            "componentType" : 5126,
            "count" : 46,
            "type" : "VEC2"
        },
        {
            "bufferView" : 3,
            "componentType" : 5123,
            "count" : 84,
            "type" : "SCALAR"
        },
        {
            "bufferView" : 5,
            "componentType" : 5126,
            "count" : 24,
            "max" : [
                1,
                1,
                1
            ],
            "min" : [
                -1,
                -1,
                -1
            ],
            "type" : "VEC3"
        },
        {
            "bufferView" : 6,
            "componentType" : 5126,
            "count" : 24,
            "type" : "VEC3"
        },
        {
            "bufferView" : 7,
            "componentType" : 5126,
            "count" : 24,
            "type" : "VEC2"
        },
        {
            "bufferView" : 8,
            "componentType" : 5123,
            "count" : 36,
            "type" : "SCALAR"
        },
        {
            "bufferView" : 9,
            "componentType" : 5126,
            "count" : 24,
            "max" : [
                1,
                1,
                1
            ],
            "min" : [
                -1,
                -1,
                -1
            ],
            "type" : "VEC3"
        },
        {
            "bufferView" : 10,
            "componentType" : 5126,
            "count" : 24,
            "type" : "VEC3"
        },
        {
            "bufferView" : 11,
            "componentType" : 5126,
            "count" : 24,
            "type" : "VEC2"
        },
        {
            "bufferView" : 12,
            "componentType" : 5126,
            "count" : 24,
            "max" : [
                1,
                1,
                1
            ],
            "min" : [
                -1,
                -1,
                -1
            ],
            "type" : "VEC3"
        },
        {
            "bufferView" : 13,
            "componentType" : 5126,
            "count" : 24,
            "type" : "VEC3"
        },
        {
            "bufferView" : 14,
            "componentType" : 5126,
            "count" : 24,
            "type" : "VEC2"
        },
        {
            "bufferView" : 15,
            "componentType" : 5126,
            "count" : 24,
            "max" : [
                1,
                1,
                1
            ],
            "min" : [
                -1,
                -1,
                -1
            ],
            "type" : "VEC3"
        },
        {
            "bufferView" : 16,
            "componentType" : 5126,
            "count" : 24,
            "type" : "VEC3"
        },
        {
            "bufferView" : 17,
            "componentType" : 5126,
            "count" : 24,
            "type" : "VEC2"
        }
    ],
    "bufferViews" : [
        {
            "buffer" : 0,
            "byteLength" : 552,
            "byteOffset" : 0
        },
        {
            "buffer" : 0,
            "byteLength" : 552,
            "byteOffset" : 552
        },
        {
            "buffer" : 0,
            "byteLength" : 368,
            "byteOffset" : 1104
        },
        {
            "buffer" : 0,
            "byteLength" : 168,
            "byteOffset" : 1472
        },
        {
            "buffer" : 0,
            "byteLength" : 7810,
            "byteOffset" : 1640
        },
        {
            "buffer" : 0,
            "byteLength" : 288,
            "byteOffset" : 9452
        },
        {
            "buffer" : 0,
            "byteLength" : 288,
            "byteOffset" : 9740
        },
        {
            "buffer" : 0,
            "byteLength" : 192,
            "byteOffset" : 10028
        },
        {
            "buffer" : 0,
            "byteLength" : 72,
            "byteOffset" : 10220
        },
        {
            "buffer" : 0,
            "byteLength" : 288,
            "byteOffset" : 10292
        },
        {
            "buffer" : 0,
            "byteLength" : 288,
            "byteOffset" : 10580
        },
        {
            "buffer" : 0,
            "byteLength" : 192,
            "byteOffset" : 10868
        },
        {
            "buffer" : 0,
            "byteLength" : 288,
            "byteOffset" : 11060
        },
        {
            "buffer" : 0,
            "byteLength" : 288,
            "byteOffset" : 11348
        },
        {
            "buffer" : 0,
            "byteLength" : 192,
            "byteOffset" : 11636
        },
        {
            "buffer" : 0,
            "byteLength" : 288,
            "byteOffset" : 11828
        },
        {
            "buffer" : 0,
            "byteLength" : 288,
            "byteOffset" : 12116
        },
        {
            "buffer" : 0,
            "byteLength" : 192,
            "byteOffset" : 12404
        }
    ],
    "samplers" : [
        {
            "magFilter" : 9729,
            "minFilter" : 9987
        }
    ],
    "buffers" : [
        {
            "byteLength" : 12596,
            "uri" : "data:application/octet-stream;base64,"
        }
    ]
}
