{
    "asset" : {
        "generator" : "Khronos glTF Blender I/O v1.8.19",
        "version" : "2.0"
    },
    "scene" : 0,
    "scenes" : [
        {
            "name" : "Scene",
            "nodes" : [
                4,
                9,
                14,
                19
            ]
        }
    ],
    "nodes" : [
        {
            "mesh" : 0,
            "name" : "Wardrobe_01 - Default_0",
            "scale" : [
                0.2706223428249359,
                0.2706223428249359,
                0.2706223726272583
            ],
            "translation" : [
                -197.2890167236328,
                -112.01946258544922,
                0
            ]
        },
        {
            "children" : [
                0
            ],
            "name" : "Wardrobe",
            "rotation" : [
                -0.707106351852417,
                -0.00077573221642524,
                -0.00077573221642524,
                0.707106351852417
            ],
            "translation" : [
                197.53512573242188,
                0,
                -112.04096984863281
            ]
        },
        {
            "children" : [
                1
            ],
            "name" : "RootNode"
        },
        {
            "children" : [
                2
            ],
            "name" : "5c60ed32ad9241a7aa633afd0e10ea87.fbx",
            "rotation" : [
                0.7071068286895752,
                0,
                0,
                0.7071068286895752
            ]
        },
        {
            "children" : [
                3
            ],
            "name" : "Sketchfab_model",
            "rotation" : [
                -0.7071068286895752,
                0,
                0,
                0.7071068286895752
            ],
            "scale" : [
                0.05397748947143555,
                0.05397748947143555,
                0.05397748947143555
            ],
            "translation" : [
                2.7703373432159424,
                0,
                0
            ]
        },
        {
            "mesh" : 1,
            "name" : "Wardrobe_01 - Default_0.001",
            "scale" : [
                0.2706223428249359,
                0.2706223428249359,
                0.2706223726272583
            ],
            "translation" : [
                -197.2890167236328,
                -112.01946258544922,
                0
            ]
        },
        {
            "children" : [
                5
            ],
            "name" : "Wardrobe.001",
            "rotation" : [
                -0.707106351852417,
                -0.00077573221642524,
                -0.00077573221642524,
                0.707106351852417
            ],
            "translation" : [
                197.53512573242188,
                0,
                -112.04096984863281
            ]
        },
        {
            "children" : [
                6
            ],
            "name" : "RootNode.001"
        },
        {
            "children" : [
                7
            ],
            "name" : "5c60ed32ad9241a7aa633afd0e10ea87.fbx.001",
            "rotation" : [
                0.7071068286895752,
                0,
                0,
                0.7071068286895752
            ]
        },
        {
            "children" : [
                8
            ],
            "name" : "Sketchfab_model.001",
            "rotation" : [
                -0.7071068286895752,
                0,
                0,
                0.7071068286895752
            ],
            "scale" : [
                0.05397748947143555,
                0.05397748947143555,
                0.05397748947143555
            ],
            "translation" : [
                0.9291688203811646,
                0,
                0
            ]
        },
        {
            "mesh" : 2,
            "name" : "Wardrobe_01 - Default_0.002",
            "scale" : [
                0.2706223428249359,
                0.2706223428249359,
                0.2706223726272583
            ],
            "translation" : [
                -197.2890167236328,
                -112.01946258544922,
                0
            ]
        },
        {
            "children" : [
                10
            ],
            "name" : "Wardrobe.002",
            "rotation" : [
                -0.707106351852417,
                -0.00077573221642524,
                -0.00077573221642524,
                0.707106351852417
            ],
            "translation" : [
                197.53512573242188,
                0,
                -112.04096984863281
            ]
        },
        {
            "children" : [
                11
            ],
            "name" : "RootNode.002"
        },
        {
            "children" : [
                12
            ],
            "name" : "5c60ed32ad9241a7aa633afd0e10ea87.fbx.002",
            "rotation" : [
                0.7071068286895752,
                0,
                0,
                0.7071068286895752
            ]
        },
        {
            "children" : [
                13
            ],
            "name" : "Sketchfab_model.002",
            "rotation" : [
                -0.7071068286895752,
                0,
                0,
                0.7071068286895752
            ],
            "scale" : [
                0.05397748947143555,
                0.05397748947143555,
                0.05397748947143555
            ],
            "translation" : [
                -2.7869064807891846,
                0,
                0
            ]
        },
        {
            "mesh" : 3,
            "name" : "Wardrobe_01 - Default_0.003",
            "scale" : [
                0.2706223428249359,
                0.2706223428249359,
                0.2706223726272583
            ],
            "translation" : [
                -197.2890167236328,
                -112.01946258544922,
                0
            ]
        },
        {
            "children" : [
                15
            ],
            "name" : "Wardrobe.003",
            "rotation" : [
                -0.707106351852417,
                -0.00077573221642524,
                -0.00077573221642524,
                0.707106351852417
            ],
            "translation" : [
                197.53512573242188,
                0,
                -112.04096984863281
            ]
        },
        {
            "children" : [
                16
            ],
            "name" : "RootNode.003"
        },
        {
            "children" : [
                17
            ],
            "name" : "5c60ed32ad9241a7aa633afd0e10ea87.fbx.003",
            "rotation" : [
                0.7071068286895752,
                0,
                0,
                0.7071068286895752
            ]
        },
        {
            "children" : [
                18
            ],
            "name" : "Sketchfab_model.003",
            "rotation" : [
                -0.7071068286895752,
                0,
                0,
                0.7071068286895752
            ],
            "scale" : [
                0.05397748947143555,
                0.05397748947143555,
                0.05397748947143555
            ],
            "translation" : [
                -0.9457380771636963,
                0,
                0
            ]
        }
    ],
    "materials" : [
        {
            "doubleSided" : true,
            "name" : "01_-_Default",
            "pbrMetallicRoughness" : {
                "baseColorTexture" : {
                    "index" : 0
                },
                "metallicFactor" : 0,
                "roughnessFactor" : 0.8929713368415833
            }
        },
        {
            "doubleSided" : true,
            "name" : "01_-_Default.001",
            "pbrMetallicRoughness" : {
                "baseColorTexture" : {
                    "index" : 1
                },
                "metallicFactor" : 0,
                "roughnessFactor" : 0.8929713368415833
            }
        },
        {
            "doubleSided" : true,
            "name" : "01_-_Default.002",
            "pbrMetallicRoughness" : {
                "baseColorTexture" : {
                    "index" : 2
                },
                "metallicFactor" : 0,
                "roughnessFactor" : 0.8929713368415833
            }
        },
        {
            "doubleSided" : true,
            "name" : "01_-_Default.003",
            "pbrMetallicRoughness" : {
                "baseColorTexture" : {
                    "index" : 3
                },
                "metallicFactor" : 0,
                "roughnessFactor" : 0.8929713368415833
            }
        }
    ],
    "meshes" : [
        {
            "name" : "Wardrobe_01 - Default_0",
            "primitives" : [
                {
                    "attributes" : {
                        "POSITION" : 0,
                        "NORMAL" : 1,
                        "TEXCOORD_0" : 2
                    },
                    "indices" : 3,
                    "material" : 0
                }
            ]
        },
        {
            "name" : "Wardrobe_01 - Default_0.001",
            "primitives" : [
                {
                    "attributes" : {
                        "POSITION" : 4,
                        "NORMAL" : 5,
                        "TEXCOORD_0" : 6
                    },
                    "indices" : 3,
                    "material" : 1
                }
            ]
        },
        {
            "name" : "Wardrobe_01 - Default_0.002",
            "primitives" : [
                {
                    "attributes" : {
                        "POSITION" : 7,
                        "NORMAL" : 8,
                        "TEXCOORD_0" : 9
                    },
                    "indices" : 3,
                    "material" : 2
                }
            ]
        },
        {
            "name" : "Wardrobe_01 - Default_0.003",
            "primitives" : [
                {
                    "attributes" : {
                        "POSITION" : 10,
                        "NORMAL" : 11,
                        "TEXCOORD_0" : 12
                    },
                    "indices" : 3,
                    "material" : 3
                }
            ]
        }
    ],
    "textures" : [
        {
            "sampler" : 0,
            "source" : 0
        },
        {
            "sampler" : 0,
            "source" : 0
        },
        {
            "sampler" : 0,
            "source" : 0
        },
        {
            "sampler" : 0,
            "source" : 0
        }
    ],
    "images" : [
        {
            "bufferView" : 4,
            "mimeType" : "image/png",
            "name" : "01_-_Default_baseColor"
        }
    ],
    "accessors" : [
        {
            "bufferView" : 0,
            "componentType" : 5126,
            "count" : 203,
            "max" : [
                63.85665512084961,
                31.63716697692871,
                262.4296569824219
            ],
            "min" : [
                -63.856651306152344,
                -31.637165069580078,
                0
            ],
            "type" : "VEC3"
        },
        {
            "bufferView" : 1,
            "componentType" : 5126,
            "count" : 203,
            "type" : "VEC3"
        },
        {
            "bufferView" : 2,
            "componentType" : 5126,
            "count" : 203,
            "type" : "VEC2"
        },
        {
            "bufferView" : 3,
            "componentType" : 5123,
            "count" : 396,
            "type" : "SCALAR"
        },
        {
            "bufferView" : 5,
            "componentType" : 5126,
            "count" : 203,
            "max" : [
                63.85665512084961,
                31.63716697692871,
                262.4296569824219
            ],
            "min" : [
                -63.856651306152344,
                -31.637165069580078,
                0
            ],
            "type" : "VEC3"
        },
        {
            "bufferView" : 6,
            "componentType" : 5126,
            "count" : 203,
            "type" : "VEC3"
        },
        {
            "bufferView" : 7,
            "componentType" : 5126,
            "count" : 203,
            "type" : "VEC2"
        },
        {
            "bufferView" : 8,
            "componentType" : 5126,
            "count" : 203,
            "max" : [
                63.85665512084961,
                31.63716697692871,
                262.4296569824219
            ],
            "min" : [
                -63.856651306152344,
                -31.637165069580078,
                0
            ],
            "type" : "VEC3"
        },
        {
            "bufferView" : 9,
            "componentType" : 5126,
            "count" : 203,
            "type" : "VEC3"
        },
        {
            "bufferView" : 10,
            "componentType" : 5126,
            "count" : 203,
            "type" : "VEC2"
        },
        {
            "bufferView" : 11,
            "componentType" : 5126,
            "count" : 203,
            "max" : [
                63.85665512084961,
                31.63716697692871,
                262.4296569824219
            ],
            "min" : [
                -63.856651306152344,
                -31.637165069580078,
                0
            ],
            "type" : "VEC3"
        },
        {
            "bufferView" : 12,
            "componentType" : 5126,
            "count" : 203,
            "type" : "VEC3"
        },
        {
            "bufferView" : 13,
            "componentType" : 5126,
            "count" : 203,
            "type" : "VEC2"
        }
    ],
    "bufferViews" : [
        {
            "buffer" : 0,
            "byteLength" : 2436,
            "byteOffset" : 0
        },
        {
            "buffer" : 0,
            "byteLength" : 2436,
            "byteOffset" : 2436
        },
        {
            "buffer" : 0,
            "byteLength" : 1624,
            "byteOffset" : 4872
        },
        {
            "buffer" : 0,
            "byteLength" : 792,
            "byteOffset" : 6496
        },
        {
            "buffer" : 0,
            "byteLength" : 300033,
            "byteOffset" : 7288
        },
        {
            "buffer" : 0,
            "byteLength" : 2436,
            "byteOffset" : 307324
        },
        {
            "buffer" : 0,
            "byteLength" : 2436,
            "byteOffset" : 309760
        },
        {
            "buffer" : 0,
            "byteLength" : 1624,
            "byteOffset" : 312196
        },
        {
            "buffer" : 0,
            "byteLength" : 2436,
            "byteOffset" : 313820
        },
        {
            "buffer" : 0,
            "byteLength" : 2436,
            "byteOffset" : 316256
        },
        {
            "buffer" : 0,
            "byteLength" : 1624,
            "byteOffset" : 318692
        },
        {
            "buffer" : 0,
            "byteLength" : 2436,
            "byteOffset" : 320316
        },
        {
            "buffer" : 0,
            "byteLength" : 2436,
            "byteOffset" : 322752
        },
        {
            "buffer" : 0,
            "byteLength" : 1624,
            "byteOffset" : 325188
        }
    ],
    "samplers" : [
        {
            "magFilter" : 9729,
            "minFilter" : 9987
        }
    ],
    "buffers" : [
        {
            "byteLength" : 326812,
            "uri" : "data:application/octet-stream;base64,"
        }
    ]
}
