{
    "asset" : {
        "generator" : "Khronos glTF Blender I/O v1.8.19",
        "version" : "2.0"
    },
    "scene" : 0,
    "scenes" : [
        {
            "name" : "Scene",
            "nodes" : [
                4
            ]
        }
    ],
    "nodes" : [
        {
            "mesh" : 0,
            "name" : "Wet_floor_sign_lambert1_0"
        },
        {
            "children" : [
                0
            ],
            "name" : "Wet_floor_sign",
            "translation" : [
                -1.8711357116699219,
                -30.712005615234375,
                8.58306884765625e-06
            ]
        },
        {
            "children" : [
                1
            ],
            "name" : "RootNode"
        },
        {
            "children" : [
                2
            ],
            "name" : "wet_floor_sign.fbx",
            "rotation" : [
                0.7071068286895752,
                0,
                0,
                0.7071068286895752
            ]
        },
        {
            "children" : [
                3
            ],
            "name" : "Sketchfab_model",
            "rotation" : [
                -0.7071068286895752,
                0,
                0,
                0.7071068286895752
            ],
            "scale" : [
                0.18680012226104736,
                0.18680012226104736,
                0.18680012226104736
            ]
        }
    ],
    "materials" : [
        {
            "doubleSided" : true,
            "name" : "lambert1",
            "normalTexture" : {
                "index" : 0
            },
            "occlusionTexture" : {
                "index" : 1
            },
            "pbrMetallicRoughness" : {
                "baseColorTexture" : {
                    "index" : 2
                },
                "metallicFactor" : 0,
                "metallicRoughnessTexture" : {
                    "index" : 1
                }
            }
        }
    ],
    "meshes" : [
        {
            "name" : "Wet_floor_sign_lambert1_0",
            "primitives" : [
                {
                    "attributes" : {
                        "POSITION" : 0,
                        "NORMAL" : 1,
                        "TEXCOORD_0" : 2
                    },
                    "indices" : 3,
                    "material" : 0
                }
            ]
        }
    ],
    "textures" : [
        {
            "sampler" : 0,
            "source" : 0
        },
        {
            "sampler" : 0,
            "source" : 1
        },
        {
            "sampler" : 0,
            "source" : 2
        }
    ],
    "images" : [
        {
            "bufferView" : 4,
            "mimeType" : "image/png",
            "name" : "lambert1_normal"
        },
        {
            "bufferView" : 5,
            "mimeType" : "image/png",
            "name" : "lambert1_metallicRoughness"
        },
        {
            "bufferView" : 6,
            "mimeType" : "image/png",
            "name" : "lambert1_baseColor"
        }
    ],
    "accessors" : [
        {
            "bufferView" : 0,
            "componentType" : 5126,
            "count" : 674,
            "max" : [
                18.686771392822266,
                59.954917907714844,
                16.49151039123535
            ],
            "min" : [
                -14.944499969482422,
                1.469095230102539,
                -16.491527557373047
            ],
            "type" : "VEC3"
        },
        {
            "bufferView" : 1,
            "componentType" : 5126,
            "count" : 674,
            "type" : "VEC3"
        },
        {
            "bufferView" : 2,
            "componentType" : 5126,
            "count" : 674,
            "type" : "VEC2"
        },
        {
            "bufferView" : 3,
            "componentType" : 5123,
            "count" : 864,
            "type" : "SCALAR"
        }
    ],
    "bufferViews" : [
        {
            "buffer" : 0,
            "byteLength" : 8088,
            "byteOffset" : 0
        },
        {
            "buffer" : 0,
            "byteLength" : 8088,
            "byteOffset" : 8088
        },
        {
            "buffer" : 0,
            "byteLength" : 5392,
            "byteOffset" : 16176
        },
        {
            "buffer" : 0,
            "byteLength" : 1728,
            "byteOffset" : 21568
        },
        {
            "buffer" : 0,
            "byteLength" : 607971,
            "byteOffset" : 23296
        },
        {
            "buffer" : 0,
            "byteLength" : 348218,
            "byteOffset" : 631268
        },
        {
            "buffer" : 0,
            "byteLength" : 758844,
            "byteOffset" : 979488
        }
    ],
    "samplers" : [
        {
            "magFilter" : 9729,
            "minFilter" : 9987
        }
    ],
    "buffers" : [
        {
            "byteLength" : 1738332,
            "uri" : "data:application/octet-stream;base64,"
        }
    ]
}
